<svg xmlns="http://www.w3.org/2000/svg" xmlns:xlink="http://www.w3.org/1999/xlink" viewBox="0 0 294.99 15"><defs><clipPath id="clip-path" transform="translate(-0.02 0)"><rect width="295" height="15" style="fill:none"/></clipPath></defs><title>line</title><g id="Layer_2" data-name="Layer 2"><g id="Layer_1-2" data-name="Layer 1"><g style="clip-path:url(#clip-path)"><g id="Group_3" data-name="Group 3"><path id="Fill_1" data-name="Fill 1" d="M3.74,14.38C21,8.55,40.18,2.83,58,9.67c4.43,1.7,8.62,3.46,13.37,4.08A52.07,52.07,0,0,0,86,13.31c9-1.38,17.63-4.52,26.59-6.17,7.91-1.45,16.61-2.18,24.33.57,4,1.43,7.43,4.2,11.45,5.71,4.31,1.61,9.11,1.75,13.65,1.46,4.89-.3,9.76-1,14.63-1.57q7.53-.83,15.08-1.51Q207,10.42,222.4,9.65q31-1.55,62-.67c2.57.07,5.13.15,7.7.25,3.8.14,3.8-5.77,0-5.91Q261,2.15,229.77,3.41q-30.66,1.25-61.14,4.91c-4.62.55-9.38,1.13-14,.56-4.28-.53-7.61-2.65-11.29-4.68C135.59,0,126.6-.54,118,.41c-9,1-17.54,3.7-26.34,5.76a67,67,0,0,1-14.09,2A35.09,35.09,0,0,1,64.21,5.82c-4.28-1.64-8.39-3.36-12.93-4.16A65.92,65.92,0,0,0,37,.77C27.37,1.19,18,3.51,8.78,6.47c-2.21.72-4.41,1.46-6.61,2.2A3,3,0,0,0,.11,12.31a3,3,0,0,0,3.63,2.07" transform="translate(-0.02 0)" style="fill:#e15200"/></g></g></g></g></svg>