<svg id="Group_528" data-name="Group 528" xmlns="http://www.w3.org/2000/svg" xmlns:xlink="http://www.w3.org/1999/xlink" width="41.491" height="44.185" viewBox="0 0 41.491 44.185">
  <defs>
    <clipPath id="clip-path">
      <rect id="Rectangle_42" data-name="Rectangle 42" width="31.642" height="30.503" fill="#001f37"/>
    </clipPath>
  </defs>
  <path id="Path_161" data-name="Path 161" d="M.872,20.975c1.55,6.662,3.268,15.831,10.58,13.389,2.684-.9,5.469-3.1,8.3-6.194a58.519,58.519,0,0,0,10.37-16.964C33.408,2.65,30.815,1.014,24.6.142S11.183,2.508,5.252,7.716-.678,14.313.872,20.975Z" transform="translate(10.747 3.211) rotate(13)" fill="#96a9b8" opacity="0.388"/>
  <g id="Group_126" data-name="Group 126">
    <g id="Group_125" data-name="Group 125" clip-path="url(#clip-path)">
      <path id="Path_168" data-name="Path 168" d="M31.642,3.722l-8.069,5.9a4.471,4.471,0,0,1,.758,1.264C26.2,8.7,31.642,3.722,31.642,3.722m-2.479,9.7.821-2.116L28.215,9.882l.245-2.256-.091-.04-2.036,2.3a11.054,11.054,0,0,1,1.229,5.367,12.31,12.31,0,1,1-12.31-12.31A12.066,12.066,0,0,1,24.966,7.69L26.4,6.718l-.018-.009-.347-2.242L23.794,4.12l-.916-2.076-2.256.245L19.2.52l-2.116.82L15.252,0,13.421,1.34,11.3.52,9.883,2.288,7.627,2.044,6.71,4.12l-2.243.347L4.119,6.71l-2.076.916.245,2.256L.52,11.3l.82,2.116L0,15.252l1.341,1.832L.52,19.2l1.768,1.423-.245,2.256,2.076.916.348,2.242,2.243.348.916,2.076,2.257-.245L11.3,29.984l2.116-.82,1.832,1.34,1.831-1.34,2.116.82,1.423-1.769,2.256.245.916-2.076,2.242-.348.347-2.242,2.077-.916-.245-2.256L29.985,19.2l-.821-2.116,1.34-1.832ZM23.62,9.656V9.481a12.018,12.018,0,1,0,.75,1.461l-.037.006-.036-.007A66.717,66.717,0,0,0,15.192,22.9a41.866,41.866,0,0,0-7.31-11.451L15.3,15.7Z" transform="translate(0 0)" fill="#001f37"/>
    </g>
  </g>
</svg>
