<svg id="Group_526" data-name="Group 526" xmlns="http://www.w3.org/2000/svg" xmlns:xlink="http://www.w3.org/1999/xlink" width="38.565" height="40.974" viewBox="0 0 38.565 40.974">
  <defs>
    <clipPath id="clip-path">
      <rect id="Rectangle_116" data-name="Rectangle 116" width="27.822" height="25.667" fill="#001f37"/>
    </clipPath>
  </defs>
  <path id="Path_159" data-name="Path 159" d="M.872,20.975c1.55,6.662,3.268,15.831,10.58,13.389,2.684-.9,5.469-3.1,8.3-6.194a58.519,58.519,0,0,0,10.37-16.964C33.408,2.65,30.815,1.014,24.6.142S11.183,2.508,5.252,7.716-.678,14.313.872,20.975Z" transform="translate(7.821 0) rotate(13)" fill="#96a9b8" opacity="0.388"/>
  <g id="Group_206" data-name="Group 206" transform="translate(0.001 1.97)">
    <g id="Group_205" data-name="Group 205" transform="translate(0 0)" clip-path="url(#clip-path)">
      <path id="Path_227" data-name="Path 227" d="M23.707,1.3A1.3,1.3,0,0,0,22.4,0H21.288a1.3,1.3,0,0,0-1.3,1.3V3.791a1.3,1.3,0,0,0,1.3,1.3H22.4a1.3,1.3,0,0,0,1.3-1.3ZM8.033,1.3A1.3,1.3,0,0,0,6.73,0H5.613a1.3,1.3,0,0,0-1.3,1.3V3.791a1.3,1.3,0,0,0,1.3,1.3H6.73a1.3,1.3,0,0,0,1.3-1.3Zm16.955,1.44h-.3V4.884A1.347,1.347,0,0,1,23.424,6.27H20.3A1.371,1.371,0,0,1,19,4.884V2.743H9.013V4.884A1.417,1.417,0,0,1,7.668,6.27H4.54A1.3,1.3,0,0,1,3.331,4.884V2.743H2.976A2.845,2.845,0,0,0,0,5.457V22.764a3,3,0,0,0,2.976,2.9H24.988a2.878,2.878,0,0,0,2.834-2.9V5.457a2.72,2.72,0,0,0-2.834-2.714M9.013,23.9H3.758a1.894,1.894,0,0,1-1.8-1.922v-2H9.013Zm0-5.094H1.96V14.891H9.013Zm0-5.094H1.96V9.8H9.013ZM17.829,23.9H10.188V19.985h7.641Zm0-5.094H10.188V14.891h7.641Zm0-5.094H10.188V9.8h7.641Zm8.229,8.267A1.939,1.939,0,0,1,24.206,23.9H19V19.985h7.054Zm0-3.172H19V14.891h7.054Zm0-5.094H19V9.8h7.054Z" transform="translate(0 0)" fill="#001f37"/>
    </g>
  </g>
</svg>
