<svg id="Group_527" data-name="Group 527" xmlns="http://www.w3.org/2000/svg" xmlns:xlink="http://www.w3.org/1999/xlink" width="38.565" height="40.974" viewBox="0 0 38.565 40.974">
  <defs>
    <clipPath id="clip-path">
      <rect id="Rectangle_117" data-name="Rectangle 117" width="30.284" height="25.445" fill="#001f37"/>
    </clipPath>
  </defs>
  <path id="Path_163" data-name="Path 163" d="M.872,20.975c1.55,6.662,3.268,15.831,10.58,13.389,2.684-.9,5.469-3.1,8.3-6.194a58.519,58.519,0,0,0,10.37-16.964C33.408,2.65,30.815,1.014,24.6.142S11.183,2.508,5.252,7.716-.678,14.313.872,20.975Z" transform="translate(7.821 0) rotate(13)" fill="#96a9b8" opacity="0.388"/>
  <g id="Group_209" data-name="Group 209" transform="translate(0 1.847)">
    <g id="Group_208" data-name="Group 208" transform="translate(0 0)">
      <g id="Group_207" data-name="Group 207" clip-path="url(#clip-path)">
        <path id="Path_228" data-name="Path 228" d="M19.508,13.406a7.722,7.722,0,0,1-3.326,1.31,1.227,1.227,0,0,1-.546,1.79,17.012,17.012,0,0,1,1.083,4.989c0,.87-.705,2.262-1.576,2.262s-1.575-1.392-1.575-2.262a17.012,17.012,0,0,1,1.083-4.989,1.225,1.225,0,0,1-.555-1.774,7.719,7.719,0,0,1-3.4-1.289,7.68,7.68,0,0,0-4.919,6.812c0,.063,0,.126.006.19H5.774v5H24.508V20.489c0-.078.007-.156.007-.234,0-2.974-2.03-5.553-5.006-6.849m-1.484,5.719,1.206-1.381,1.014.885.475-.544,1.192,1.04ZM8.111,7.033a7.033,7.033,0,0,0,7.016,7.032h.034A7.032,7.032,0,0,0,15.153,0h-.017A7.032,7.032,0,0,0,8.111,7.033M22.383,3.883a7.888,7.888,0,0,1-2.048,9.145,10.008,10.008,0,0,1,1.6.962A7.032,7.032,0,0,0,20.922,0h-.017A6.95,6.95,0,0,0,19.57.13a7.374,7.374,0,0,1,2.812,3.753m2.895,9.522a7.7,7.7,0,0,1-2.627,1.173A7.347,7.347,0,0,1,25.2,20.016c0,.081,0,.163-.007.244v5.184h5.087V20.489c0-.078.008-.156.008-.234,0-2.974-2.03-5.553-5.006-6.849M7.633,14.579a7.7,7.7,0,0,1-2.627-1.173C2.03,14.7,0,17.281,0,20.255c0,.078,0,.156.007.234v4.956H5.095V20.261c0-.081-.007-.163-.007-.244a7.347,7.347,0,0,1,2.545-5.437m.719-.589a10.008,10.008,0,0,1,1.6-.962A7.888,7.888,0,0,1,7.9,3.883,7.372,7.372,0,0,1,10.713.13,6.963,6.963,0,0,0,9.377,0H9.361A7.032,7.032,0,0,0,8.352,13.99" transform="translate(0 0)" fill="#001f37"/>
      </g>
    </g>
    <rect id="Rectangle_118" data-name="Rectangle 118" width="5.336" height="4.269" transform="translate(17.077 17.041)" fill="#001f37"/>
  </g>
</svg>
