<svg id="Group_530" data-name="Group 530" xmlns="http://www.w3.org/2000/svg" xmlns:xlink="http://www.w3.org/1999/xlink" width="45.106" height="40.974" viewBox="0 0 45.106 40.974">
  <defs>
    <clipPath id="clip-path">
      <rect id="Rectangle_39" data-name="Rectangle 39" width="32.332" height="26.806" fill="#001f37"/>
    </clipPath>
  </defs>
  <path id="Path_11" data-name="Path 11" d="M.872,20.975c1.55,6.662,3.268,15.831,10.58,13.389,2.684-.9,5.469-3.1,8.3-6.194a58.519,58.519,0,0,0,10.37-16.964C33.408,2.65,30.815,1.014,24.6.142S11.183,2.508,5.252,7.716-.678,14.313.872,20.975Z" transform="translate(14.362 0) rotate(13)" fill="#96a9b8" opacity="0.388"/>
  <g id="Group_120" data-name="Group 120" transform="translate(0 1.156)">
    <g id="Group_119" data-name="Group 119" clip-path="url(#clip-path)">
      <path id="Path_165" data-name="Path 165" d="M18.333,17.748a37.384,37.384,0,0,0,13.342-4.3L26.684,0S20.24,4.467,13.342,4.3,0,8.61,0,8.61L4.991,22.054a37.394,37.394,0,0,1,13.343-4.306M12.662,9.51a1.939,1.939,0,0,1,.207-.771,2.241,2.241,0,0,1,.528-.665,3.548,3.548,0,0,1,.832-.533l-.282-1.215a.21.21,0,0,1,0-.088A.184.184,0,0,1,14,6.154a.541.541,0,0,1,.136-.089,2.366,2.366,0,0,1,.242-.1,2.4,2.4,0,0,1,.307-.084.663.663,0,0,1,.2-.013A.159.159,0,0,1,15,5.93a.365.365,0,0,1,.057.111l.258,1.144q.172-.032.367-.053a3.275,3.275,0,0,1,.372-.019,2.969,2.969,0,0,1,.326.02.706.706,0,0,1,.216.051.45.45,0,0,1,.11.074.466.466,0,0,1,.082.109,1.236,1.236,0,0,1,.08.168c.027.067.056.145.087.234.041.121.072.221.092.3a.685.685,0,0,1,.029.189.184.184,0,0,1-.025.1.126.126,0,0,1-.063.044.581.581,0,0,1-.248,0c-.114-.019-.253-.032-.414-.043a4.629,4.629,0,0,0-.547,0,2.432,2.432,0,0,0-.636.131,2.17,2.17,0,0,0-.5.235,1.031,1.031,0,0,0-.295.283.682.682,0,0,0-.114.318.841.841,0,0,0,.045.343.769.769,0,0,0,.3.412,1.328,1.328,0,0,0,.5.19,4.106,4.106,0,0,0,.633.059q.344.007.7.021a6.235,6.235,0,0,1,.721.071,2.373,2.373,0,0,1,.681.212,1.906,1.906,0,0,1,.581.442,2.134,2.134,0,0,1,.421.759,2.346,2.346,0,0,1,.13.966,2.137,2.137,0,0,1-.269.867,2.658,2.658,0,0,1-.631.735,3.957,3.957,0,0,1-.947.57l.3,1.292a.231.231,0,0,1,0,.09.157.157,0,0,1-.056.084.66.66,0,0,1-.139.09,1.73,1.73,0,0,1-.238.1,2.085,2.085,0,0,1-.307.084.645.645,0,0,1-.2.011.173.173,0,0,1-.113-.056.225.225,0,0,1-.049-.114l-.28-1.229a4.543,4.543,0,0,1-.5.07,4.106,4.106,0,0,1-.445.015,2.812,2.812,0,0,1-.359-.031.942.942,0,0,1-.246-.07.427.427,0,0,1-.164-.166,2.09,2.09,0,0,1-.161-.379c-.045-.132-.078-.243-.1-.331a.738.738,0,0,1-.027-.213.2.2,0,0,1,.04-.12.205.205,0,0,1,.093-.061.518.518,0,0,1,.252.012,4.018,4.018,0,0,0,.44.066,3.75,3.75,0,0,0,.618.005,3.145,3.145,0,0,0,.793-.171,1.769,1.769,0,0,0,.931-.6.854.854,0,0,0,.1-.788.762.762,0,0,0-.3-.413,1.391,1.391,0,0,0-.491-.189,3.5,3.5,0,0,0-.624-.062q-.338-.006-.7-.021a5.776,5.776,0,0,1-.714-.077,2.485,2.485,0,0,1-.678-.22,1.884,1.884,0,0,1-.58-.452,2.237,2.237,0,0,1-.424-.778,2.212,2.212,0,0,1-.125-.848M18.78,21A37.392,37.392,0,0,0,5.438,25.3L.937,13.176c-.183.118-.28.185-.28.185L5.647,26.806A37.392,37.392,0,0,1,18.99,22.5a37.409,37.409,0,0,0,13.342-4.3l-.5-1.344A37.361,37.361,0,0,1,18.78,21m-.336-2.407A37.4,37.4,0,0,0,5.1,22.894L.6,10.769c-.183.118-.28.184-.28.184L5.312,24.4a37.4,37.4,0,0,1,13.342-4.3A37.392,37.392,0,0,0,32,15.789l-.5-1.344a37.338,37.338,0,0,1-13.053,4.145" transform="translate(0 0)" fill="#001f37"/>
    </g>
  </g>
</svg>
