<svg xmlns="http://www.w3.org/2000/svg" xmlns:xlink="http://www.w3.org/1999/xlink" width="48.8" height="54.219" viewBox="0 0 48.8 54.219">
  <defs>
    <clipPath id="clip-path">
      <rect id="Rectangle_14" data-name="Rectangle 14" width="38.325" height="36.529" fill="#001f37"/>
    </clipPath>
  </defs>
  <g id="Group_354" data-name="Group 354" transform="translate(-443.613 -2794.035)">
    <path id="Path_17" data-name="Path 17" d="M33.93-1649.626c1.473,6.33,3.105,15.043,10.053,12.722,2.55-.852,5.2-2.947,7.885-5.886a55.6,55.6,0,0,0,9.854-16.118c3.123-8.129.659-9.684-5.248-10.513s-12.746,2.248-18.382,7.2S32.458-1655.956,33.93-1649.626Z" transform="translate(55.379 4428.641) rotate(13)" fill="#96a9b8" opacity="0.388"/>
    <g id="Group_36" data-name="Group 36" transform="translate(443.613 2794.035)">
      <g id="Group_35" data-name="Group 35" clip-path="url(#clip-path)">
        <path id="Path_31" data-name="Path 31" d="M9.678,67.021c0,1.657.01,3.315-.007,4.972a.668.668,0,0,0,.543.774c1.84.558,3.665,1.164,5.5,1.736a13.356,13.356,0,0,0,8.5.061A56.96,56.96,0,0,0,33.9,70.131a35.821,35.821,0,0,0,3.311-2.041,2.493,2.493,0,0,0,.8-3.281,2.534,2.534,0,0,0-3.043-1.193c-1.474.371-2.958.7-4.428,1.088a1.491,1.491,0,0,0-.692.469,4.946,4.946,0,0,1-2.375,1.569c-2.644.784-5.287.3-7.919-.079-.227-.032-.561-.581-.525-.847s.431-.594.736-.7a2.932,2.932,0,0,1,1.06.05c1.518.1,3.035.272,4.553.279a3.9,3.9,0,0,0,3.178-1.339,2.43,2.43,0,0,0,.354-2.591,1.852,1.852,0,0,0-1.659-1.275c-2.812-.2-5.623-.432-8.438-.555a18.28,18.28,0,0,0-4.338.182,33.783,33.783,0,0,0-4.231,1.482.785.785,0,0,0-.579.9c.022,1.59.009,3.18.009,4.77M0,67.02C0,69.011,0,71,0,72.994c0,.981.4,1.374,1.388,1.378q2.584.01,5.169,0c.989,0,1.373-.348,1.376-1.311q.019-6.074,0-12.149c0-.915-.406-1.28-1.339-1.284q-2.584-.012-5.169,0c-1.016,0-1.423.407-1.426,1.42C0,63.037,0,65.029,0,67.02M19.158,55.828h11.62c1.461,0,1.491-.032,1.489-1.524v-.067c0-1.125-.141-1.262-1.29-1.262H7.737c-1.7,0-1.7,0-1.688,1.668,0,1.045.146,1.186,1.221,1.186q5.944,0,11.889,0" transform="translate(0 -38.701)" fill="#001f37"/>
        <path id="Path_32" data-name="Path 32" d="M35.895,85.1c0-1.59.014-3.18-.009-4.77a.785.785,0,0,1,.579-.9A33.741,33.741,0,0,1,40.7,77.941a18.279,18.279,0,0,1,4.338-.182c2.816.123,5.626.358,8.438.555a1.852,1.852,0,0,1,1.659,1.275,2.43,2.43,0,0,1-.354,2.591A3.9,3.9,0,0,1,51.6,83.519c-1.518-.007-3.036-.178-4.553-.279a2.932,2.932,0,0,0-1.06-.05c-.305.105-.7.429-.736.7s.3.815.525.847c2.632.375,5.274.862,7.919.079a4.948,4.948,0,0,0,2.375-1.569,1.491,1.491,0,0,1,.692-.469c1.471-.384,2.954-.717,4.428-1.088a2.534,2.534,0,0,1,3.043,1.193,2.493,2.493,0,0,1-.8,3.281,35.888,35.888,0,0,1-3.311,2.041,56.961,56.961,0,0,1-9.687,4.432,13.358,13.358,0,0,1-8.5-.061c-1.836-.572-3.661-1.178-5.5-1.736a.668.668,0,0,1-.543-.774c.017-1.657.007-3.314.007-4.972" transform="translate(-26.217 -56.776)" fill="#001f37"/>
        <path id="Path_33" data-name="Path 33" d="M30.7,13.054A10.95,10.95,0,0,1,38.4,3.194c.57-.183.685-.482.7-1.017A2.025,2.025,0,0,1,40.993.045C42.66-.161,43.716.328,44.1,1.493a1.239,1.239,0,0,1,.094.523c-.1.721.214,1,.9,1.252a10.8,10.8,0,0,1,7.39,8.994c.1.644-.084.85-.759.847-6.739-.023-13.478-.013-20.216-.015-.241,0-.481-.023-.818-.04M41.611,2.721V2.708c.157,0,.313.008.469,0,.288-.016.672.132.679-.388.006-.429-.136-.772-.6-.828a4.614,4.614,0,0,0-1.134,0c-.49.063-.553.432-.52.855.035.449.345.381.634.374.156,0,.313,0,.469,0" transform="translate(-22.425 0)" fill="#001f37"/>
        <path id="Path_34" data-name="Path 34" d="M0,85.046c0-1.991,0-3.983,0-5.974,0-1.012.41-1.416,1.425-1.42q2.585-.009,5.169,0c.933,0,1.336.369,1.339,1.284q.02,6.074,0,12.149c0,.963-.387,1.307-1.377,1.311q-2.584.01-5.169,0C.4,92.394.007,92,0,91.02,0,89.029,0,87.037,0,85.046" transform="translate(0 -56.727)" fill="#001f37"/>
        <path id="Path_35" data-name="Path 35" d="M35.558,55.827q-5.944,0-11.889,0c-1.075,0-1.216-.141-1.221-1.186-.007-1.668-.007-1.668,1.688-1.668h23.24c1.149,0,1.287.137,1.29,1.262V54.3c0,1.493-.028,1.524-1.489,1.524H35.558" transform="translate(-16.4 -38.7)" fill="#001f37"/>
      </g>
    </g>
  </g>
</svg>
