<svg xmlns="http://www.w3.org/2000/svg" xmlns:xlink="http://www.w3.org/1999/xlink" width="50.716" height="47.932" viewBox="0 0 50.716 47.932">
  <defs>
    <clipPath id="clip-path">
      <rect id="Rectangle_8" data-name="Rectangle 8" width="36.146" height="39.068" fill="#001f37"/>
    </clipPath>
  </defs>
  <g id="Group_360" data-name="Group 360" transform="translate(-571 -2961.322)">
    <path id="Path_19" data-name="Path 19" d="M33.93-1649.626c1.473,6.33,3.105,15.043,10.053,12.722,2.55-.852,5.2-2.947,7.885-5.886a55.6,55.6,0,0,0,9.854-16.118c3.123-8.129.659-9.684-5.248-10.513s-12.746,2.248-18.382,7.2S32.458-1655.956,33.93-1649.626Z" transform="translate(184.682 4589.641) rotate(13)" fill="#96a9b8" opacity="0.388"/>
    <g id="Group_23" data-name="Group 23" transform="translate(570 2959.322)">
      <g id="Group_22" data-name="Group 22" transform="translate(1 2)" clip-path="url(#clip-path)">
        <path id="Path_18" data-name="Path 18" d="M35.48,34.41a3.469,3.469,0,0,0-.931-.729L23.583,20.613l.269-.226a1.755,1.755,0,0,0,.541-1.482l-1-5.777a1.729,1.729,0,0,0-1.01-1.2l-5.52-1.981a1.084,1.084,0,0,0-.657-.062l4.745,5.654a.855.855,0,0,1-.161,1.227l-4.5,3.779a.784.784,0,0,1-1.17-.111L10.36,14.76a1.282,1.282,0,0,0-.084.712l.983,5.786a1.732,1.732,0,0,0,1,1.21l5.513,1.989a1.752,1.752,0,0,0,1.55-.272l.336-.283,10.92,13.014a2.108,2.108,0,0,0,.558,1.135,2.832,2.832,0,1,0,4.34-3.641m-1.371,2.8a1.263,1.263,0,1,1,.156-1.779,1.263,1.263,0,0,1-.156,1.779m-17.1-9.839a10.373,10.373,0,1,1,9.59-6.411l4.534,5.4a1.38,1.38,0,0,0-.4-1.535l-1.867-1.55A18.109,18.109,0,0,0,30.177,19.7H32.56a1.439,1.439,0,0,0,1.419-1.405v-2.75a1.532,1.532,0,0,0-1.419-1.508H30.189a17.731,17.731,0,0,0-1.307-3.546l1.843-1.513a1.36,1.36,0,0,0,.17-1.921l-1.767-2.1a1.378,1.378,0,0,0-1.937-.166L25.338,6.336A14.192,14.192,0,0,0,19.7,3.717V1.336A1.317,1.317,0,0,0,18.354,0H15.6a1.523,1.523,0,0,0-1.569,1.336v2.4a15.306,15.306,0,0,0-5.441,2.6L6.805,4.8a1.351,1.351,0,0,0-1.913.17L3.138,7.072a1.379,1.379,0,0,0,.175,1.937L5.159,10.49a17.71,17.71,0,0,0-1.3,3.546H1.4A1.514,1.514,0,0,0,0,15.543v2.75A1.421,1.421,0,0,0,1.4,19.7h2.47a18.068,18.068,0,0,0,1.316,3.579L3.319,24.835a1.374,1.374,0,0,0-.17,1.933l1.767,2.105a1.379,1.379,0,0,0,1.937.167l1.778-1.573a15.179,15.179,0,0,0,5.4,2.571V32.5a1.647,1.647,0,0,0,1.569,1.48h2.75A1.444,1.444,0,0,0,19.7,32.5V30.057c.492-.136,1.276-.321,1.9-.552l-2.04-2.459a10.174,10.174,0,0,1-2.547.322" fill="#001f37"/>
      </g>
    </g>
  </g>
</svg>
