<svg xmlns="http://www.w3.org/2000/svg" xmlns:xlink="http://www.w3.org/1999/xlink" width="53.413" height="41.932" viewBox="0 0 53.413 41.932">
  <defs>
    <clipPath id="clip-path">
      <rect id="Rectangle_6" data-name="Rectangle 6" width="43.873" height="27.393" fill="#001f37"/>
    </clipPath>
  </defs>
  <g id="Group_361" data-name="Group 361" transform="translate(-304 -2967.323)">
    <path id="Path_14" data-name="Path 14" d="M33.93-1649.626c1.473,6.33,3.105,15.043,10.053,12.722,2.55-.852,5.2-2.947,7.885-5.886a55.6,55.6,0,0,0,9.854-16.118c3.123-8.129.659-9.684-5.248-10.513s-12.746,2.248-18.382,7.2S32.458-1655.956,33.93-1649.626Z" transform="translate(-79.621 4589.641) rotate(13)" fill="#96a9b8" opacity="0.388"/>
    <g id="Group_18" data-name="Group 18" transform="translate(304 2967.322)">
      <g id="Group_17" data-name="Group 17" transform="translate(0 0)" clip-path="url(#clip-path)">
        <path id="Path_13" data-name="Path 13" d="M32.847,17.5a4.946,4.946,0,1,0,4.946,4.945A4.945,4.945,0,0,0,32.847,17.5m0,7.194A2.248,2.248,0,1,1,35.1,22.446,2.248,2.248,0,0,1,32.847,24.7M10.626,17.5a4.946,4.946,0,1,0,4.946,4.945A4.946,4.946,0,0,0,10.626,17.5m0,7.194a2.248,2.248,0,1,1,2.248-2.249A2.249,2.249,0,0,1,10.626,24.7m32.311-4.922v-3.4a1.416,1.416,0,0,0-1.48-1.393h-.745L37.052,7.9c-.446-.8-.657-1.478-1.468-1.478H26.642a1.333,1.333,0,0,0-1.361,1.412v8.141a1.43,1.43,0,0,0,.014.2,1.447,1.447,0,0,0-.014.2v3.689h-.937V1.426A1.526,1.526,0,0,0,22.771,0H1.417A1.389,1.389,0,0,0,0,1.426V21.179a1.507,1.507,0,0,0,1.417,1.56H4.753a5.809,5.809,0,0,1,5.873-5.872A5.809,5.809,0,0,1,16.5,22.739H26.909a5.873,5.873,0,0,1,11.745,0h3.67a1.62,1.62,0,0,0,1.549-1.56v-.066a1.494,1.494,0,0,0-.936-1.34M19.4,9.119l-5.2-1.361h5.2Zm0-2.4L11.865,5.083H19.4Zm0-2.579-11.331-2H19.4ZM36.879,15.307c-1.2,0-7.968-1.334-7.968-1.334s-1.191-.207-1.191-1.078c0-1.2,0-3.662,0-3.662,0-.38-.095-1.475,1.134-1.475H33.6s1.467-.057,2.359,1.9c.685,1.506,1.8,3.807,2.094,4.392s.029,1.256-1.17,1.256" transform="translate(0 0)" fill="#001f37"/>
      </g>
    </g>
  </g>
</svg>
