<svg xmlns="http://www.w3.org/2000/svg" xmlns:xlink="http://www.w3.org/1999/xlink" width="50.972" height="41.821" viewBox="0 0 50.972 41.821">
  <defs>
    <clipPath id="clip-path">
      <rect id="Rectangle_130" data-name="Rectangle 130" width="37.928" height="38.064" fill="#001f37"/>
    </clipPath>
  </defs>
  <g id="Group_358" data-name="Group 358" transform="translate(-1089.35 -2967.969)">
    <path id="Path_30" data-name="Path 30" d="M33.93-1649.626c1.473,6.33,3.105,15.043,10.053,12.722,2.55-.852,5.2-2.947,7.885-5.886a55.6,55.6,0,0,0,9.854-16.118c3.123-8.129.659-9.684-5.248-10.513s-12.746,2.248-18.382,7.2S32.458-1655.956,33.93-1649.626Z" transform="translate(703.287 4590.176) rotate(13)" fill="#96a9b8" opacity="0.388"/>
    <g id="Group_260" data-name="Group 260" transform="matrix(0.995, -0.105, 0.105, 0.995, 1089.35, 2971.934)">
      <g id="Group_259" data-name="Group 259" clip-path="url(#clip-path)">
        <path id="Path_251" data-name="Path 251" d="M0,62.228c.333-.18.573-.315.819-.441a47.212,47.212,0,0,0,9.876-6.869c.451-.4.689-.452,1.135.015q6.015,6.3,12.075,12.551c.179.186.351.379.554.6a94.749,94.749,0,0,1-8.893,10.289l-4.285-4.439c.767-.8,1.5-1.566,2.235-2.33.316-.329.637-.654.951-.985a.655.655,0,0,0,.056-.986.63.63,0,0,0-.98.068c-.9.918-1.783,1.845-2.676,2.766-.148.152-.308.293-.522.495L5.209,67.635c.265-.292.5-.565.751-.826.783-.816,1.572-1.625,2.354-2.441.287-.3.4-.651.084-.982-.345-.356-.714-.247-1.026.074Q6.1,64.769,4.839,66.093c-.163.171-.3.367-.511.629L0,62.228" transform="translate(0 -40.309)" fill="#001f37"/>
        <path id="Path_252" data-name="Path 252" d="M73.591,21.386l-2.126,1.892L58.566,9.9,60.7,8c.55.518,1.207,1.1,1.828,1.728a4.59,4.59,0,0,0,3.5,1.467,4.637,4.637,0,0,0,3.326-1.56Q73.623,5.189,77.9.758A1.839,1.839,0,0,1,79.813.065a1.882,1.882,0,0,1,.93,3c-.35.441-.768.828-1.159,1.235q-3.889,4.04-7.779,8.08a4.9,4.9,0,0,0-.041,7.073c.578.617,1.162,1.228,1.827,1.931" transform="translate(-43.238 0)" fill="#001f37"/>
        <path id="Path_253" data-name="Path 253" d="M46.728,44.443c.694-.715,1.332-1.391,2-2.036a.5.5,0,0,1,.474.042,9.164,9.164,0,0,1,.78.785Q55.71,49.173,61.446,55.1c.4.415.475.687.008,1.087-.592.506-1.136,1.067-1.779,1.68L46.728,44.443" transform="translate(-34.498 -31.277)" fill="#001f37"/>
      </g>
    </g>
  </g>
</svg>
