<svg xmlns="http://www.w3.org/2000/svg" xmlns:xlink="http://www.w3.org/1999/xlink" width="46.808" height="43.762" viewBox="0 0 46.808 43.762">
  <defs>
    <clipPath id="clip-path">
      <rect id="Rectangle_129" data-name="Rectangle 129" width="29.374" height="36.943" fill="#001f37"/>
    </clipPath>
  </defs>
  <g id="Group_359" data-name="Group 359" transform="translate(-835.264 -2966.027)">
    <path id="Path_236" data-name="Path 236" d="M33.93-1649.626c1.473,6.33,3.105,15.043,10.053,12.722,2.55-.852,5.2-2.947,7.885-5.886a55.6,55.6,0,0,0,9.854-16.118c3.123-8.129.659-9.684-5.248-10.513s-12.746,2.248-18.382,7.2S32.458-1655.956,33.93-1649.626Z" transform="translate(445.037 4590.176) rotate(13)" fill="#96a9b8" opacity="0.388"/>
    <g id="Group_258" data-name="Group 258" transform="translate(835.264 2966.027)">
      <g id="Group_257" data-name="Group 257" clip-path="url(#clip-path)">
        <path id="Path_250" data-name="Path 250" d="M12.342,36.928c-.017-.343-.042-.619-.042-.9,0-3.1-.014-6.207.009-9.31a1.124,1.124,0,0,0-.648-1.2,7.573,7.573,0,0,1-1.114-.807,20.933,20.933,0,0,1-2.5,1.065A6.37,6.37,0,0,1,2.2,14.826a1.362,1.362,0,0,0,.579-1.491,6.263,6.263,0,0,1,5.2-7.44A.864.864,0,0,0,8.815,5.1,6.3,6.3,0,0,1,14.828.006a6.233,6.233,0,0,1,6.315,4.532,2.2,2.2,0,0,0,1.58,1.754,6.24,6.24,0,0,1,3.8,7.4.7.7,0,0,0,.279.832,6.117,6.117,0,0,1,2.382,6.513,6.1,6.1,0,0,1-4.836,4.82,5.937,5.937,0,0,1-4.522-.671.737.737,0,0,0-.979.058,5.09,5.09,0,0,1-1.231.713.8.8,0,0,0-.55.885c.018,3.125-.005,6.25.023,9.375.005.583-.168.739-.736.721-1.318-.041-2.639-.013-4.015-.013" transform="translate(0 0)" fill="#001f37"/>
      </g>
    </g>
  </g>
</svg>
