<svg xmlns="http://www.w3.org/2000/svg" xmlns:xlink="http://www.w3.org/1999/xlink" width="60.116" height="50.738" viewBox="0 0 60.116 50.738">
  <defs>
    <clipPath id="clip-path">
      <rect id="Rectangle_12" data-name="Rectangle 12" width="52.688" height="38.425" fill="#001f37"/>
    </clipPath>
  </defs>
  <g id="Group_357" data-name="Group 357" transform="translate(-1216.156 -2798.852)">
    <path id="Path_26" data-name="Path 26" d="M33.93-1649.626c1.473,6.33,3.105,15.043,10.053,12.722,2.55-.852,5.2-2.947,7.885-5.886a55.6,55.6,0,0,0,9.854-16.118c3.123-8.129.659-9.684-5.248-10.513s-12.746,2.248-18.382,7.2S32.458-1655.956,33.93-1649.626Z" transform="translate(839.238 4429.977) rotate(13)" fill="#96a9b8" opacity="0.388"/>
    <g id="Group_32" data-name="Group 32" transform="translate(1216.156 2798.852)">
      <g id="Group_31" data-name="Group 31" transform="translate(0 0)" clip-path="url(#clip-path)">
        <path id="Path_25" data-name="Path 25" d="M51.822,9.024H50.3a12.892,12.892,0,0,0-.841-2.3l1.185-.98a.879.879,0,0,0,.108-1.239L49.615,3.158a.886.886,0,0,0-1.245-.107l-1.135.992a9.586,9.586,0,0,0-3.57-1.684V.829A.923.923,0,0,0,42.689,0H40.922a.733.733,0,0,0-.749.829V2.371a8.148,8.148,0,0,0-3.627,1.672l-1.214-.991a.907.907,0,0,0-1.262.109L32.925,4.516a.886.886,0,0,0,.1,1.245l1.182.967a12.794,12.794,0,0,0-.842,2.3H31.79a.974.974,0,0,0-.933.937v1.767a.852.852,0,0,0,.933.789h1.589a8.233,8.233,0,0,0,.846,2.357l-1.2,1.031a.9.9,0,0,0-.109,1.257l1.136,1.36a.886.886,0,0,0,1.245.111l1.272-1.009a8.1,8.1,0,0,0,3.6,1.654v1.582c0,.489.261.972.749.972h1.768a1.045,1.045,0,0,0,.976-.972V19.292a9.534,9.534,0,0,0,3.546-1.666l1.182,1.011a.874.874,0,0,0,1.235-.109l1.13-1.354a.887.887,0,0,0-.112-1.245l-1.2-1.054a8.253,8.253,0,0,0,.845-2.357h1.533a.794.794,0,0,0,.867-.789V9.961a.917.917,0,0,0-.867-.937m-9.989,7.162a5.342,5.342,0,1,1,5.342-5.342,5.341,5.341,0,0,1-5.342,5.342m-9.457,3.026H30.025a12.021,12.021,0,0,0-1.3-3.7l1.827-1.593a1.4,1.4,0,0,0,.169-1.95l-1.753-2.1a1.367,1.367,0,0,0-1.921-.175l-1.9,1.525a13.8,13.8,0,0,0-5.651-2.6V6.252a1.2,1.2,0,0,0-1.218-1.3H15.56a1.256,1.256,0,0,0-1.3,1.3V8.632a13.447,13.447,0,0,0-5.527,2.581L6.9,9.684a1.379,1.379,0,0,0-1.93.168L3.212,11.941a1.366,1.366,0,0,0,.166,1.921L5.2,15.513a11.983,11.983,0,0,0-1.3,3.7H1.47c-.753,0-1.47.376-1.47,1.128v2.727a1.475,1.475,0,0,0,1.47,1.383H3.92a14.475,14.475,0,0,0,1.306,3.554L3.375,29.554a1.366,1.366,0,0,0-.168,1.919L4.96,33.561a1.366,1.366,0,0,0,1.921.167l1.894-1.559a13.336,13.336,0,0,0,5.49,2.55v2.44a1.228,1.228,0,0,0,1.3,1.268h2.727A1.167,1.167,0,0,0,19.5,37.158V34.736a13.7,13.7,0,0,0,5.615-2.569l1.9,1.559a1.387,1.387,0,0,0,1.938-.168l1.763-2.089a1.367,1.367,0,0,0-.164-1.921L28.7,28.006a14.477,14.477,0,0,0,1.307-3.554h2.365a1.4,1.4,0,0,0,1.391-1.383V20.341c0-.752-.638-1.128-1.391-1.128M16.982,32.019A10.292,10.292,0,1,1,27.273,21.726,10.291,10.291,0,0,1,16.982,32.019M16.96,13.609a8.148,8.148,0,0,0-8.134,8.169,7.5,7.5,0,0,0,1.2,4.2,8.158,8.158,0,0,0,6.914,3.955,8.418,8.418,0,0,0,7.067-3.955,8.5,8.5,0,0,0,1.134-4.2,8.192,8.192,0,0,0-8.185-8.169m-1.417,1.249a9.182,9.182,0,0,0-2.89,3.19H10.969a7.666,7.666,0,0,1,4.574-3.19M10.4,19.213h1.784a11.715,11.715,0,0,0-.4,2.328H9.92a7.849,7.849,0,0,1,.477-2.328m.254,5.822a8.194,8.194,0,0,1-.685-2.329h1.851a13.172,13.172,0,0,0,.575,2.329Zm.712,1.164h1.612c.173,0,.365.478.574.74a8.384,8.384,0,0,0,2.012,1.846,7.848,7.848,0,0,1-4.2-2.586m4.94,1.643A19.38,19.38,0,0,1,14.347,26.2H16.3Zm0-2.807H13.641a8.176,8.176,0,0,1-.679-2.329H16.3Zm0-3.494H12.916a10.288,10.288,0,0,1,.475-2.328H16.3Zm0-3.493H13.959A9.177,9.177,0,0,1,16.3,15.715ZM17.466,15.7a6.6,6.6,0,0,1,2.483,2.345H17.466Zm0,3.51h3.051a10.175,10.175,0,0,1,.475,2.328H17.466Zm0,3.493h3.481a8.174,8.174,0,0,1-.678,2.329h-2.8Zm0,3.493h2.1a8.241,8.241,0,0,1-2.1,1.656Zm.893,2.541a8.061,8.061,0,0,0,1.995-1.755,7.043,7.043,0,0,0,.578-.786h1.592A7.748,7.748,0,0,1,18.36,28.74m4.877-3.705H21.512a13.435,13.435,0,0,0,.58-2.329h1.83a8.218,8.218,0,0,1-.685,2.329m.731-3.494H22.132a11.671,11.671,0,0,0-.4-2.328H23.49a7.827,7.827,0,0,1,.478,2.328m-2.713-3.493a9.159,9.159,0,0,0-2.879-3.182,7.632,7.632,0,0,1,4.543,3.182Z" transform="translate(0 0)" fill="#001f37"/>
      </g>
    </g>
  </g>
</svg>
