<svg xmlns="http://www.w3.org/2000/svg" width="197.205" height="34.03" viewBox="0 0 197.205 34.03">
  <g id="GigSmart_Logo_White" transform="translate(-10.168 -10.168)">
    <g id="Group_430" data-name="Group 430" transform="translate(46.745 15.587)">
      <path id="Path_297" data-name="Path 297" d="M74.4,31.3c0-7.136,5.453-11.613,12.152-11.613a10.473,10.473,0,0,1,9.593,5.453L91.3,27.663A5.569,5.569,0,0,0,86.556,24.8a6.184,6.184,0,0,0-6.261,6.5,6.2,6.2,0,0,0,6.261,6.5,7.116,7.116,0,0,0,4.14-1.346V34.813H85.647V30.285H96.486v8.251a12.919,12.919,0,0,1-9.93,4.376C79.857,42.912,74.4,38.435,74.4,31.3Z" transform="translate(-74.404 -19.685)" fill="#fff"/>
      <path id="Path_298" data-name="Path 298" d="M118.562,42.787V20.335h5.79V42.787Z" transform="translate(-93.418 -19.965)" fill="#fff"/>
      <path id="Path_299" data-name="Path 299" d="M133.222,31.3c0-7.136,5.453-11.613,12.152-11.613a10.473,10.473,0,0,1,9.593,5.453l-4.847,2.525a5.57,5.57,0,0,0-4.746-2.861,6.184,6.184,0,0,0-6.261,6.5,6.2,6.2,0,0,0,6.261,6.5,7.116,7.116,0,0,0,4.14-1.346V34.813h-5.049V30.285H155.3v8.251a12.919,12.919,0,0,1-9.93,4.376C138.675,42.912,133.222,38.435,133.222,31.3Z" transform="translate(-99.73 -19.685)" fill="#fff"/>
      <path id="Path_300" data-name="Path 300" d="M176.08,39.343l1.683-2.154a9.261,9.261,0,0,0,7.035,3.232c4.006,0,5.285-2.154,5.285-3.9,0-5.79-13.3-2.558-13.3-10.57,0-3.7,3.3-6.261,7.742-6.261a10.551,10.551,0,0,1,7.944,3.164L190.79,24.9a8.473,8.473,0,0,0-6.5-2.693c-2.659,0-4.612,1.448-4.612,3.568,0,5.049,13.3,2.154,13.3,10.536,0,3.232-2.222,6.6-8.281,6.6a11.169,11.169,0,0,1-8.617-3.568Z" transform="translate(-118.184 -19.685)" fill="#fff"/>
      <path id="Path_301" data-name="Path 301" d="M230.794,42.787V23.9l-7.607,18.884h-1.145L214.4,23.9V42.787h-2.794V20.335h4.006l7,17.3,6.968-17.3h4.006V42.787Z" transform="translate(-133.481 -19.965)" fill="#fff"/>
      <path id="Path_302" data-name="Path 302" d="M272.219,42.787l-1.986-5.016H259.057l-1.986,5.016h-3.2l9.055-22.452H266.4l9.021,22.452ZM264.645,23.2,259.9,35.314h9.526Z" transform="translate(-151.68 -19.965)" fill="#fff"/>
      <path id="Path_303" data-name="Path 303" d="M308.365,42.787l-5.689-8.92h-4.511v8.92h-2.794V20.335h9.021c4.107,0,7.069,2.626,7.069,6.766a6.23,6.23,0,0,1-5.857,6.53l6.059,9.156Zm.2-15.686a4.183,4.183,0,0,0-4.511-4.275h-5.891V31.41h5.891A4.227,4.227,0,0,0,308.567,27.1Z" transform="translate(-169.549 -19.965)" fill="#fff"/>
      <path id="Path_304" data-name="Path 304" d="M333.686,42.787V22.826h-7.1V20.335h17.033v2.491H336.48V42.787Z" transform="translate(-182.988 -19.965)" fill="#fff"/>
    </g>
    <g id="Group_432" data-name="Group 432" transform="translate(10.168 10.169)">
      <g id="Group_431" data-name="Group 431" transform="translate(0 0)">
        <path id="Path_305" data-name="Path 305" d="M16.555,16.556a14.931,14.931,0,0,1,10.628-4.4V10.169A17.015,17.015,0,0,0,10.168,27.184h1.985A14.931,14.931,0,0,1,16.555,16.556Z" transform="translate(-10.168 -10.169)" fill="#fff"/>
        <path id="Path_306" data-name="Path 306" d="M40.049,63.786v1.985A16.945,16.945,0,0,0,50.986,61.79L49.71,60.27a14.917,14.917,0,0,1-9.661,3.516Z" transform="translate(-23.034 -31.741)" fill="#fff"/>
      </g>
      <path id="Path_307" data-name="Path 307" d="M29.247,40.05H27.262a7.281,7.281,0,0,0,7.281,7.281V45.346a5.3,5.3,0,0,1-5.3-5.3Z" transform="translate(-17.528 -23.035)" fill="#fff"/>
      <path id="Path_308" data-name="Path 308" d="M37,28.357h0a2.052,2.052,0,0,1,0-4.1h0V22.268h0a4.037,4.037,0,1,0,0,8.074h0a2.052,2.052,0,0,1,0,4.1V36.43a4.037,4.037,0,0,0,0-8.074Z" transform="translate(-19.982 -15.378)" fill="#fff"/>
      <path id="Path_309" data-name="Path 309" d="M32.09,44.61A8.538,8.538,0,0,1,24.695,31.8l-1.722-.994a10.527,10.527,0,1,0,19.4,7.517H40.328A8.556,8.556,0,0,1,32.09,44.61Z" transform="translate(-15.075 -19.055)" fill="#fff"/>
      <path id="Path_310" data-name="Path 310" d="M34.933,28.644v1.985H41.38a11.785,11.785,0,1,1-4.168-10.021l1.276-1.52a13.77,13.77,0,1,0,4.883,11.541c.023-.328.036-1.985.036-1.985H34.933Z" transform="translate(-12.621 -12.622)" fill="#fff"/>
    </g>
  </g>
</svg>
