<svg id="GigSmart_Logo_Color" xmlns="http://www.w3.org/2000/svg" width="175.083" height="30.183" viewBox="0 0 175.083 30.183">
  <g id="Group_267" data-name="Group 267" transform="translate(32.458 4.752)">
    <path id="Path_254" data-name="Path 254" d="M74.4,30.014c0-6.32,4.854-10.314,10.769-10.314a9.265,9.265,0,0,1,8.494,4.854l-4.3,2.225a4.949,4.949,0,0,0-4.2-2.528,5.5,5.5,0,0,0-5.561,5.764,5.531,5.531,0,0,0,5.561,5.764,6.278,6.278,0,0,0,3.691-1.213V33.1h-4.5V29.053h9.606v7.331a11.423,11.423,0,0,1-8.8,3.893C79.254,40.328,74.4,36.334,74.4,30.014Z" transform="translate(-74.4 -19.649)" fill="#003b5c"/>
    <path id="Path_255" data-name="Path 255" d="M118.6,40.271V20.3h5.157V40.22C123.706,40.271,118.6,40.271,118.6,40.271Z" transform="translate(-96.253 -19.946)" fill="#003b5c"/>
    <path id="Path_256" data-name="Path 256" d="M133.2,30.014c0-6.32,4.854-10.314,10.769-10.314a9.265,9.265,0,0,1,8.494,4.854l-4.3,2.225a4.949,4.949,0,0,0-4.2-2.528,5.5,5.5,0,0,0-5.561,5.764,5.531,5.531,0,0,0,5.561,5.764,6.278,6.278,0,0,0,3.691-1.213V33.1h-4.449V29.053h9.606v7.331a11.423,11.423,0,0,1-8.8,3.893C138.054,40.328,133.2,36.334,133.2,30.014Z" transform="translate(-103.472 -19.649)" fill="#003b5c"/>
    <path id="Path_257" data-name="Path 257" d="M176.1,37.093l1.517-1.921a8.136,8.136,0,0,0,6.269,2.882c3.539,0,4.7-1.921,4.7-3.489,0-5.157-11.831-2.275-11.831-9.4,0-3.286,2.932-5.561,6.876-5.561a9.464,9.464,0,0,1,7.078,2.831l-1.517,1.82a7.562,7.562,0,0,0-5.764-2.376c-2.376,0-4.1,1.264-4.1,3.185,0,4.5,11.831,1.921,11.831,9.353,0,2.882-1.972,5.865-7.331,5.865a9.861,9.861,0,0,1-7.735-3.185Z" transform="translate(-124.682 -19.6)" fill="#003b5c"/>
    <path id="Path_258" data-name="Path 258" d="M228.638,40.271V23.485l-6.775,16.785h-1.011l-6.775-16.785V40.271H211.6V20.3h3.539l6.219,15.37,6.168-15.37h3.539V40.22h-2.427Z" transform="translate(-142.234 -19.946)" fill="#003b5c"/>
    <path id="Path_259" data-name="Path 259" d="M270.18,40.32l-1.77-4.449H258.5l-1.77,4.449H253.9l8.039-19.92h3.084l7.988,19.92Zm-6.724-17.392-4.2,10.769H267.7C267.7,33.646,263.455,22.928,263.455,22.928Z" transform="translate(-163.148 -19.996)" fill="#003b5c"/>
    <path id="Path_260" data-name="Path 260" d="M306.927,40.271l-5.056-7.938h-3.994v7.938H295.4V20.3h7.988c3.64,0,6.269,2.326,6.269,6.016a5.552,5.552,0,0,1-5.207,5.814l5.41,8.14Zm.152-13.954a3.719,3.719,0,0,0-3.994-3.792h-5.207v7.634h5.207A3.731,3.731,0,0,0,307.079,26.316Z" transform="translate(-183.666 -19.946)" fill="#003b5c"/>
    <path id="Path_261" data-name="Path 261" d="M332.92,40.271V22.525H326.6V20.3h15.117v2.225H335.4V40.271Z" transform="translate(-199.092 -19.946)" fill="#003b5c"/>
  </g>
  <g id="Group_269" data-name="Group 269">
    <g id="Group_268" data-name="Group 268">
      <path id="Path_262" data-name="Path 262" d="M15.863,15.863a13.224,13.224,0,0,1,9.454-3.893V10.2A15.126,15.126,0,0,0,10.2,25.317h1.77A13.224,13.224,0,0,1,15.863,15.863Z" transform="translate(-10.2 -10.2)" fill="#dc4405"/>
      <path id="Path_263" data-name="Path 263" d="M40,63.384v1.77a14.959,14.959,0,0,0,9.707-3.539L48.595,60.3A13.177,13.177,0,0,1,40,63.384Z" transform="translate(-24.934 -34.97)" fill="#dc4405"/>
    </g>
    <path id="Path_264" data-name="Path 264" d="M28.97,40H27.2a6.452,6.452,0,0,0,6.471,6.471V44.7A4.661,4.661,0,0,1,28.97,40Z" transform="translate(-18.605 -24.934)" fill="#dc4405"/>
    <path id="Path_265" data-name="Path 265" d="M36.49,27.71h0a1.82,1.82,0,0,1,0-3.64h0V22.3h0a3.59,3.59,0,1,0,0,7.179h0a1.82,1.82,0,0,1,0,3.64v1.77a3.59,3.59,0,0,0,0-7.179Z" transform="translate(-21.423 -16.182)" fill="#dc4405"/>
    <path id="Path_266" data-name="Path 266" d="M30.853,43.035a7.574,7.574,0,0,1-7.584-7.584,7.461,7.461,0,0,1,1.011-3.792L22.764,30.8A9.163,9.163,0,0,0,21.5,35.451,9.364,9.364,0,0,0,40,37.474h-1.82A7.51,7.51,0,0,1,30.853,43.035Z" transform="translate(-15.787 -20.385)" fill="#dc4405"/>
    <path id="Path_267" data-name="Path 267" d="M32.788,27.225v1.77H38.5a10.413,10.413,0,1,1-3.691-8.9l1.112-1.365a12.244,12.244,0,1,0,4.3,10.263c0-.3.051-1.77.051-1.77Z" transform="translate(-12.969 -13.018)" fill="#dc4405"/>
  </g>
</svg>
