<svg id="Group_255" data-name="Group 255" xmlns="http://www.w3.org/2000/svg" xmlns:xlink="http://www.w3.org/1999/xlink" width="20.5" height="32.584" viewBox="0 0 20.5 32.584">
  <defs>
    <clipPath id="clip-path">
      <rect id="Rectangle_128" data-name="Rectangle 128" width="20.5" height="32.584" fill="#fff"/>
    </clipPath>
  </defs>
  <g id="Group_254" data-name="Group 254" clip-path="url(#clip-path)">
    <path id="Path_248" data-name="Path 248" d="M11.387,28.681c-.433-.6-.805-1.093-1.161-1.6A77.678,77.678,0,0,1,2.857,14.833a11.733,11.733,0,0,1-1.366-5.52A9.929,9.929,0,0,1,21.219,8.43a9.409,9.409,0,0,1-.747,5.157,56.234,56.234,0,0,1-5.3,9.65c-1.06,1.62-2.186,3.2-3.286,4.79-.131.189-.28.367-.5.655M5.411,9.967a5.948,5.948,0,1,0,5.934-5.948A5.956,5.956,0,0,0,5.411,9.967" transform="translate(-1.132 0)" fill="#fff"/>
    <path id="Path_249" data-name="Path 249" d="M20.5,110.7H0c.06-.232.091-.415.153-.587.906-2.478,1.822-4.953,2.72-7.434a.606.606,0,0,1,.684-.476c.723.028,1.449.029,2.172,0a.851.851,0,0,1,.808.449q1.581,2.3,3.2,4.567c.46.647.6.647,1.063,0q1.6-2.246,3.165-4.517a.936.936,0,0,1,.9-.5c.722.035,1.449-.016,2.171.027a.75.75,0,0,1,.561.353c.972,2.579,1.913,5.169,2.858,7.759a1.969,1.969,0,0,1,.047.36" transform="translate(0 -76.111)" fill="#fff"/>
  </g>
</svg>
