<svg xmlns="http://www.w3.org/2000/svg" xmlns:xlink="http://www.w3.org/1999/xlink" width="44.622" height="49.418" viewBox="0 0 44.622 49.418">
  <defs>
    <clipPath id="clip-path">
      <rect id="Rectangle_15" data-name="Rectangle 15" width="29.1" height="39.439" fill="#001f37"/>
    </clipPath>
  </defs>
  <g id="Group_355" data-name="Group 355" transform="translate(-705.449 -2798.836)">
    <path id="Path_36" data-name="Path 36" d="M33.93-1649.626c1.473,6.33,3.105,15.043,10.053,12.722,2.55-.852,5.2-2.947,7.885-5.886a55.6,55.6,0,0,0,9.854-16.118c3.123-8.129.659-9.684-5.248-10.513s-12.746,2.248-18.382,7.2S32.458-1655.956,33.93-1649.626Z" transform="translate(313.037 4428.641) rotate(13)" fill="#96a9b8" opacity="0.388"/>
    <g id="Group_38" data-name="Group 38" transform="translate(705.449 2798.836)">
      <g id="Group_37" data-name="Group 37" clip-path="url(#clip-path)">
        <path id="Path_37" data-name="Path 37" d="M3.159,26.722c0-3.556-.007-7.112.008-10.668a1.253,1.253,0,0,0-.5-1.1A7.258,7.258,0,0,1,.328,10.674,11.624,11.624,0,0,1,1.2,2.713,6.638,6.638,0,0,1,2.385,1.086a3.1,3.1,0,0,1,4.691-.023A7.768,7.768,0,0,1,9.145,5.144a11.48,11.48,0,0,1-.873,7.9A7.843,7.843,0,0,1,6.8,14.932a1.406,1.406,0,0,0-.5,1.105q.02,10.5.009,21.008c0,.24,0,.48,0,.72a1.588,1.588,0,0,1-1.566,1.66,1.57,1.57,0,0,1-1.578-1.644c-.014-1.505,0-3.01,0-4.516q0-3.273,0-6.545" transform="translate(0 0)" fill="#001f37"/>
        <path id="Path_38" data-name="Path 38" d="M93.1,19.784q0,8.964,0,17.929a1.668,1.668,0,0,1-1.238,1.773,1.581,1.581,0,0,1-1.9-1.556c-.025-1.33-.008-2.661-.008-3.991,0-4.929-.006-9.858.01-14.788a1.335,1.335,0,0,0-.452-1.075,8.286,8.286,0,0,1-2.181-4.243,16.481,16.481,0,0,1,.682-10.514A7.673,7.673,0,0,1,89.609.97,3.5,3.5,0,0,1,91.445.129,1.468,1.468,0,0,1,93.092,1.66c.025,1.068.008,2.137.008,3.206q0,7.459,0,14.919" transform="translate(-64.005 -0.081)" fill="#001f37"/>
        <path id="Path_39" data-name="Path 39" d="M49.879,26.866c0-3.578,0-7.156.007-10.734a1.185,1.185,0,0,0-.434-1.013,4.5,4.5,0,0,1-1.307-2.855,15.9,15.9,0,0,1-.216-2.408c-.017-1.935-.052-2.9-.014-8.836A1.1,1.1,0,0,1,48.184.26a.485.485,0,0,1,.3-.126A.5.5,0,0,1,48.724.2c.362.213.377,1.043.377,1.043.074,4.011.11,6.017.023,8.176,0,.1-.008.342.132.435a.4.4,0,0,0,.228.045.438.438,0,0,0,.252-.08.484.484,0,0,0,.119-.388c-.1-2.745.118-5.5.026-8.241,0,0-.023-.7.293-.944a.488.488,0,0,1,.3-.116.5.5,0,0,1,.241.079c.345.225.347.994.347.994,0,.565-.08,7.709-.031,8.188a.508.508,0,0,0,.143.327.361.361,0,0,0,.245.1.37.37,0,0,0,.263-.132.5.5,0,0,0,.108-.312c.21-6.25.051-8.207.051-8.207A1.162,1.162,0,0,1,52.068.3.516.516,0,0,1,52.4.13a.5.5,0,0,1,.333.117,1.183,1.183,0,0,1,.3.918s-.137,6.65-.053,7.938a1.735,1.735,0,0,0,.128.448.365.365,0,0,0,.1.139.336.336,0,0,0,.2.081.386.386,0,0,0,.2-.054c.213-.129.236-.544.239-.594a59.029,59.029,0,0,0-.03-7.72s0-.175,0-.458c0-.419.049-.835.583-.841s.6.4.6.824c0,1.811.025,3.622-.007,5.433-.033,1.9-.057,3.794-.208,5.682a4.58,4.58,0,0,1-1.53,3.3,1.226,1.226,0,0,0-.211.831q-.017,10.407-.009,20.814c0,.24,0,.48,0,.72a1.609,1.609,0,0,1-1.563,1.8,1.593,1.593,0,0,1-1.585-1.771c-.007-1.353,0-2.705,0-4.058V26.866" transform="translate(-35.328 -0.077)" fill="#001f37"/>
      </g>
    </g>
  </g>
</svg>
