<svg xmlns="http://www.w3.org/2000/svg" xmlns:xlink="http://www.w3.org/1999/xlink" width="41.657" height="51.497" viewBox="0 0 41.657 51.497">
  <defs>
    <clipPath id="clip-path">
      <rect id="Rectangle_9" data-name="Rectangle 9" width="26.573" height="37.127" fill="#001f37"/>
    </clipPath>
  </defs>
  <g id="Group_356" data-name="Group 356" transform="translate(-968.664 -2796.758)">
    <path id="Path_21" data-name="Path 21" d="M33.93-1649.626c1.473,6.33,3.105,15.043,10.053,12.722,2.55-.852,5.2-2.947,7.885-5.886a55.6,55.6,0,0,0,9.854-16.118c3.123-8.129.659-9.684-5.248-10.513s-12.746,2.248-18.382,7.2S32.458-1655.956,33.93-1649.626Z" transform="translate(573.287 4428.641) rotate(13)" fill="#96a9b8" opacity="0.388"/>
    <g id="Group_25" data-name="Group 25" transform="translate(968.664 2796.758)">
      <g id="Group_24" data-name="Group 24" transform="translate(0 0)" clip-path="url(#clip-path)">
        <path id="Path_20" data-name="Path 20" d="M5.4,16.357a1.208,1.208,0,0,0,.3.038,1.188,1.188,0,0,0,1.149-.889c.021-.081,2.124-8.165,3.711-11.3a3.208,3.208,0,0,1,2.793-1.914h.028a3.006,3.006,0,0,1,2.649,1.895c1.6,3.308,3.736,11.229,3.757,11.309a1.193,1.193,0,0,0,1.456.847,1.181,1.181,0,0,0,.837-1.45c-.09-.333-2.219-8.191-3.911-11.7A5.341,5.341,0,0,0,13.4,0h-.051A5.561,5.561,0,0,0,8.44,3.177c-1.7,3.359-3.8,11.391-3.889,11.731a1.187,1.187,0,0,0,.85,1.449m19.755-4.679H22.106c.515,1.985.833,3.233.867,3.36a2.063,2.063,0,0,1-1.5,2.2,2.181,2.181,0,0,1-2.4-1.34c-.01-.036-.63-2.053-1.278-4.219H8.781c-.63,1.985-1.13,4.249-1.14,4.286A2.143,2.143,0,0,1,5.7,17.259a2.92,2.92,0,0,1-.55-.092,1.844,1.844,0,0,1-1.474-2.012c.034-.129.326-1.671.805-3.476H1.416L0,37.126H26.573Z" transform="translate(0 0)" fill="#001f37"/>
      </g>
    </g>
  </g>
</svg>
