<svg xmlns="http://www.w3.org/2000/svg" xmlns:xlink="http://www.w3.org/1999/xlink" width="50.224" height="61.931" viewBox="0 0 50.224 61.931">
  <defs>
    <clipPath id="clip-path">
      <rect id="Rectangle_5" data-name="Rectangle 5" width="36.482" height="44.448" fill="#001f37"/>
    </clipPath>
  </defs>
  <g id="Group_353" data-name="Group 353" transform="translate(-173.19 -2786.323)">
    <path id="Path_11" data-name="Path 11" d="M33.93-1649.626c1.473,6.33,3.105,15.043,10.053,12.722,2.55-.852,5.2-2.947,7.885-5.886a55.6,55.6,0,0,0,9.854-16.118c3.123-8.129.659-9.684-5.248-10.513s-12.746,2.248-18.382,7.2S32.458-1655.956,33.93-1649.626Z" transform="translate(-213.621 4428.641) rotate(13)" fill="#96a9b8" opacity="0.388"/>
    <g id="Group_14" data-name="Group 14" transform="translate(173.189 2795.148) rotate(-14)">
      <g id="Group_13" data-name="Group 13" transform="translate(0 0)" clip-path="url(#clip-path)">
        <path id="Path_12" data-name="Path 12" d="M20.137,35.849a4.567,4.567,0,1,0,1.889,6.175,4.566,4.566,0,0,0-1.889-6.175m-.526,5.016a2,2,0,1,1-.826-2.7,1.995,1.995,0,0,1,.826,2.7M35.789,18.181c-1.9-1.011-3.089-1.4-4.1-1.349a3.475,3.475,0,0,0-2.414,1.313c-.057.059-.115.119-.175.18C28,19.436,18.033,30.166,17.525,30.787c-1.19,1.454-2.127,1.627-2.816,1.335l-4.591-2.44a1.434,1.434,0,0,0-1.834.615,1.317,1.317,0,0,0,.585,1.733l5.144,2.735a3.346,3.346,0,0,0,3.741-.555,10.2,10.2,0,0,0,1.779-1.746c.426-.52,10.308-11.172,11.426-12.3l.194-.2c.453-.467.533-.516.676-.524a6.653,6.653,0,0,1,2.733,1.047,1.306,1.306,0,0,0,1.227-2.306M16.849,29.625l12.768-13.8a3.158,3.158,0,0,0-.173-4.461L18.068.841a3.155,3.155,0,0,0-4.46.173L.84,14.811a3.157,3.157,0,0,0,.173,4.461L12.387,29.8a3.157,3.157,0,0,0,4.461-.173M6.883,18.632l.537-.579a1.2,1.2,0,0,1,1.672-.1l.414.382,2.339-2.528-1.034-.958,4.657-1.115L14.5,18.264l-1.078-1L11.086,19.8l2.844,2.632L16.269,19.9l-1.013-.937,4.657-1.115-.965,4.531-1.1-1.016L15.51,23.889l.5.464a1.225,1.225,0,0,1,.046,1.693l-.537.58a1.179,1.179,0,0,1-1.654.045l-6.917-6.4a1.157,1.157,0,0,1-.065-1.636" transform="translate(0 0)" fill="#001f37"/>
      </g>
    </g>
  </g>
</svg>
